solid OpenSCAD_Model
  facet normal 0.866025 0.5 0
    outer loop
      vertex 56.9615 21.3397 10
      vertex 46.9615 38.6603 -10
      vertex 46.9615 38.6603 10
    endloop
  endfacet
  facet normal 0.866025 0.5 0
    outer loop
      vertex 46.9615 38.6603 -10
      vertex 56.9615 21.3397 10
      vertex 56.9615 21.3397 -10
    endloop
  endfacet
  facet normal 0 0 1
    outer loop
      vertex 46.9615 38.6603 10
      vertex 39.641 11.3397 10
      vertex 56.9615 21.3397 10
    endloop
  endfacet
  facet normal 0 -0 1
    outer loop
      vertex 39.641 11.3397 10
      vertex 46.9615 38.6603 10
      vertex 29.641 28.6603 10
    endloop
  endfacet
  facet normal -0.866025 -0.5 0
    outer loop
      vertex 39.641 11.3397 -10
      vertex 29.641 28.6603 10
      vertex 29.641 28.6603 -10
    endloop
  endfacet
  facet normal -0.866025 -0.5 0
    outer loop
      vertex 29.641 28.6603 10
      vertex 39.641 11.3397 -10
      vertex 39.641 11.3397 10
    endloop
  endfacet
  facet normal 0 0 -1
    outer loop
      vertex 39.641 11.3397 -10
      vertex 46.9615 38.6603 -10
      vertex 56.9615 21.3397 -10
    endloop
  endfacet
  facet normal 0 0 -1
    outer loop
      vertex 46.9615 38.6603 -10
      vertex 39.641 11.3397 -10
      vertex 29.641 28.6603 -10
    endloop
  endfacet
  facet normal 0.5 -0.866025 0
    outer loop
      vertex 39.641 11.3397 -10
      vertex 56.9615 21.3397 10
      vertex 39.641 11.3397 10
    endloop
  endfacet
  facet normal 0.5 -0.866025 0
    outer loop
      vertex 56.9615 21.3397 10
      vertex 39.641 11.3397 -10
      vertex 56.9615 21.3397 -10
    endloop
  endfacet
  facet normal -0.5 0.866025 0
    outer loop
      vertex 46.9615 38.6603 -10
      vertex 29.641 28.6603 10
      vertex 46.9615 38.6603 10
    endloop
  endfacet
  facet normal -0.5 0.866025 0
    outer loop
      vertex 29.641 28.6603 10
      vertex 46.9615 38.6603 -10
      vertex 29.641 28.6603 -10
    endloop
  endfacet
  facet normal 0.707107 0.707107 0
    outer loop
      vertex 14.1421 0 5
      vertex 0 14.1421 -5
      vertex 0 14.1421 5
    endloop
  endfacet
  facet normal 0.707107 0.707107 0
    outer loop
      vertex 0 14.1421 -5
      vertex 14.1421 0 5
      vertex 14.1421 0 -5
    endloop
  endfacet
  facet normal 0 0 1
    outer loop
      vertex 0 14.1421 5
      vertex 0 -14.1421 5
      vertex 14.1421 0 5
    endloop
  endfacet
  facet normal 0 -0 1
    outer loop
      vertex 0 -14.1421 5
      vertex 0 14.1421 5
      vertex -14.1421 0 5
    endloop
  endfacet
  facet normal -0.707107 0.707107 0
    outer loop
      vertex -14.1421 0 -5
      vertex 0 14.1421 5
      vertex 0 14.1421 -5
    endloop
  endfacet
  facet normal -0.707107 0.707107 0
    outer loop
      vertex 0 14.1421 5
      vertex -14.1421 0 -5
      vertex -14.1421 0 5
    endloop
  endfacet
  facet normal -0.707107 -0.707107 0
    outer loop
      vertex 0 -14.1421 -5
      vertex -14.1421 0 5
      vertex -14.1421 0 -5
    endloop
  endfacet
  facet normal -0.707107 -0.707107 0
    outer loop
      vertex -14.1421 0 5
      vertex 0 -14.1421 -5
      vertex 0 -14.1421 5
    endloop
  endfacet
  facet normal 0 0 -1
    outer loop
      vertex 0 -14.1421 -5
      vertex 0 14.1421 -5
      vertex 14.1421 0 -5
    endloop
  endfacet
  facet normal 0 -0 -1
    outer loop
      vertex 0 14.1421 -5
      vertex 0 -14.1421 -5
      vertex -14.1421 0 -5
    endloop
  endfacet
  facet normal 0.707107 -0.707107 0
    outer loop
      vertex 0 -14.1421 5
      vertex 14.1421 0 -5
      vertex 14.1421 0 5
    endloop
  endfacet
  facet normal 0.707107 -0.707107 0
    outer loop
      vertex 14.1421 0 -5
      vertex 0 -14.1421 5
      vertex 0 -14.1421 -5
    endloop
  endfacet
endsolid OpenSCAD_Model
